<?xml version="1.0" encoding="UTF-8"?>
<svg id="Layer_1" data-name="Layer 1" xmlns="http://www.w3.org/2000/svg" viewBox="0 0 1049.15 978.44">
  <defs>
    <style>
      .cls-1 {
        fill: #bff10c;
      }

      .cls-2 {
        fill: #107947;
      }

      .cls-3 {
        fill: #cdf23b;
      }

      .cls-4 {
        fill: #025c3d;
      }

      .cls-5 {
        fill: #1d8a56;
      }

      .cls-6 {
        fill: #3a1b03;
      }

      .cls-7 {
        fill: #532905;
      }
    </style>
  </defs>
  <path class="cls-4" d="M423.82,3.79c30.41,10.94,57.25,24.68,84.38,42.17v16.87h16.88c29.14,31.01,43.77,62.22,59.06,101.21,19.72-3.56,32.53-7.54,48.85-19.44l15.48-13.24c37.79-29.21,74.63-42.6,121.29-51.66,50.96-5.66,90.08,3.71,137.7,22.64,44.06,21.64,75.62,48.96,103.33,89.45,24.28,43.57,36.35,85.12,38.36,134.98-1.66,39.69-8.6,71.41-26.27,107.18-16.4,25.64-34.46,50.04-52.58,74.49-41.7,56.27-69.19,110.01-88.84,177.6-21.9,75.32-49.28,131.27-104.68,188.54-53.08,49.88-103.43,78.1-174.07,95.46-28.73,5.74-57.32,6.45-86.51,6.55l-18.9.17c-13.11.09-26.22.13-39.34.13-19.78.03-39.54.34-59.31.66-83.06.63-149.67-8.31-223.74-49.16-49.28-29.44-90.09-67.4-122.34-114.88C24.18,753.5.84,693.12.36,626.36L0,603.86c4.98-68.07,26.49-124.02,56.79-184.67q41.44-83.76,62.75-174.04,13.2-99.7,41.14-142.78,13.42-16.85,26.89-31.1l12.16-12.95c24.73-23.11,53.11-39.58,85.2-50.21,46.35-9.63,92.02-10.17,138.89-4.32"/>
  <path class="cls-1" d="M406.94,62.83c33.61,10.44,59.15,27.42,87.02,48.49,26.17,34.89,37.33,69.98,43.07,112.65l3.32,29.16c11.56,89.7,46.96,172.2,94.57,248.88,23.66,46.56,20.07,101.96,19.01,152.98-3.85,53.47-20.76,91.43-48.48,136.56-34.92,49.7-76.25,80.49-131.01,106.29-60.47,24.33-121.73,21.82-185.63,16.87-47.24-10.32-83.07-30.63-120.23-61.15-42.95-40.85-78.39-82.03-98.08-138.64-13.1-51.48-16.14-101.75-9.49-154.46,10.7-35.56,25.79-67.96,42.19-101.21,35.4-75.18,63.76-141.34,75.42-224.04q10.98-72.32,34.27-104.91c61.43-61.53,106.94-75.53,194.06-67.47"/>
  <path class="cls-2" d="M423.82,3.79c8.55,3.08,17.43,6.6,26.55,10.65,22.19,9.83,41.44,20.77,57.82,31.53,5.62,5.62,11.25,11.25,16.88,16.87h0c21.3,22.65,35.71,44.76,47.46,73.28,5.97,14.48,9.56,22.32,11.36,27.59,2.94,8.62,4.92,16.02,6.21,21.43l4.09,25.06c3.18,29.39,9.57,65.6,22.43,105.72,13.02,40.63,29.14,74.17,43.82,100.11l9.12,16.35c35.7,63.96,49.72,113.74,52.21,186.6-.93,48.76-10.23,90.21-27.95,135.48l-6.52,17.27c-24.98,57.28-68.82,109.03-118.85,146.22-14.02,8.17-28.71,15.14-43.38,22.07l-14.68,8.57c-38.5,21.8-69.89,29.42-114.05,29.85l-21.57-.47-22.53-.31c-57.16-1.74-105.45-10.12-156.24-37.65l-20.04-10.84c-49.56-30.04-90.79-67.68-123.4-115.68C24.18,753.5.84,693.12.36,626.36l-.36-22.5c4.98-68.07,26.49-124.02,56.79-184.67q41.44-83.76,62.75-174.04,13.2-99.7,41.14-142.78,13.42-16.85,26.89-31.1l12.16-12.95c7.95-7.44,17.62-15.41,29.15-23.1,20.63-13.75,40.37-22.01,56.05-27.11,21.48-3.78,46.67-6.73,74.88-7.28,23.64-.46,45.14.84,64.01,2.96ZM277.75,71.27c-32.57,24.22-58.39,51.14-81.74,84.34-11.09,27.45-15.94,52.81-20.33,81.97-15.07,98.24-51.06,181.73-93.67,270.7-25.38,54.34-24.58,102.58-20.99,161.83,7.4,47.98,23.37,84.86,52.21,123.89,38.06,45.07,77.79,89.03,133.41,111.76,56.87,15.6,118.86,16.64,177.19,8.96,56.1-14.84,105.88-39.09,148.02-79.37,34.64-37.79,60.7-75.91,75.54-125.43,11.23-60.61,13.19-128.44-4.71-187.93-10.8-27.48-24.44-53.38-37.98-79.59l-7.91-15.29-7.93-15.33c-31.72-62.87-43.73-127.23-55.35-196.06-6.41-35.48-12.77-63.77-33.75-93.83-28.81-25.54-56.11-46.81-92.81-59.04-44.21-3.32-86.55-4.44-129.19,8.43"/>
  <path class="cls-3" d="M356.32,62.83v354.24c-.04,2.04-.09,4.09-.13,6.13.04.77.09,1.53.13,2.3-22.77.5-60.1,4.67-98.94,25.98-14.77,8.1-26.89,17.11-36.58,25.56-8.01,7.9-16.56,17.52-24.8,29.06-18.77,26.3-28.48,52.12-33.74,71.22-2.37,14.39-4.33,34.5-2.27,58.33,1.34,15.51,3.31,36.35,13.92,60.9,9.64,22.31,22.67,39.01,34,50.7,5.97,7.62,14.79,17.77,26.82,28.25,11.16,9.72,27.46,23.92,52.45,32.96,25.12,9.08,48.07,8.99,63.45,7.34,1.86.15,3.72.31,5.57.46h0c.04,1.89.09,3.78.13,5.66h0v84.34c.11,3.74.22,7.47.33,11.21l-.33,5.66c-20.41.78-48.96-.49-81.37-9.73-21-5.99-38.48-13.86-52.18-21.27-56.06-34.16-103.29-80.89-136.45-137.69-24.34-53.43-30.31-107.92-28.81-166.24,5.96-47.29,24.78-86.57,45.68-128.96,35.4-75.18,63.76-141.34,75.42-224.04q10.98-72.32,34.27-104.91c9.39-12.66,32.12-39.67,71.6-55.65,29.98-12.13,56.7-12.67,71.83-11.83Z"/>
  <path class="cls-6" d="M419.6,429.73c43.14,18.48,73.83,45.78,105.47,80.12,18.76,28.97,24.39,50.7,28.18,84.74,1.72,36.44,2.35,69.66-10.29,104.25-23.04,39.53-55.74,72.44-93.83,97.78-39.74,19.24-74.48,20.38-118.09,19.48-30.23-3.1-52.04-9.75-78.11-25.14-35.91-27.3-59.1-59.19-81.18-98.19-12.28-40.22-15.94-73.8-9.49-115.45,12.44-39.1,28.99-71.47,58.54-100.29,64.88-50.62,118.51-58.79,198.8-47.32"/>
  <path class="cls-5" d="M356.32,3.79v50.6l33.75,8.44-21.61,1.61q-56.83,6.1-109.49,26.85c-23.66,19.13-40.92,37.69-55.18,64.64-13.06,35.22-18.42,71.25-24.11,108.27-13.72,87.7-51.21,164.71-89.22,244.08-25.38,54.34-24.58,102.58-20.99,161.83,7.46,48.33,23.61,85.16,52.73,124.41,36.32,42.99,71.58,81.13,124.98,101.74,51.81,15.29,106.1,16.24,159.78,18.45v8.43h-50.63v50.61c-59.85,4.51-105.92-8.81-160.31-33.74-58.1-30.82-106.38-71.96-143.44-126.52C24.18,753.5.84,693.12.36,626.36L0,603.86c4.98-68.07,26.49-124.02,56.79-184.67q41.44-83.76,62.75-174.04,13.2-99.7,41.14-142.78,13.42-16.85,26.89-31.1l12.16-12.95C243.7,17.25,296.83-.68,356.32,3.79"/>
  <path class="cls-7" d="M356.32,425.51v379.55h50.63v8.43q-96.64,5.8-138.17-13.17c-44.6-26.33-71.86-63.09-97.03-107.54-12.28-40.22-15.94-73.8-9.49-115.45,12.44-39.1,28.99-71.47,58.54-100.29,44.45-34.69,78.26-51.54,135.52-51.54"/>
</svg>